<?xml version="1.0" encoding="UTF-8" standalone="no" ?>
<!DOCTYPE svg PUBLIC "-//W3C//DTD SVG 1.1//EN" "http://www.w3.org/Graphics/SVG/1.1/DTD/svg11.dtd">
<svg xmlns="http://www.w3.org/2000/svg" xmlns:xlink="http://www.w3.org/1999/xlink" version="1.1" width="1280" height="1024" viewBox="0 0 1280 1024" xml:space="preserve">
<desc>Created with Fabric.js 4.4.0</desc>
<defs>
</defs>
<g transform="matrix(1 0 0 1 640 512)" id="background-logo"  >
<rect style="stroke: none; stroke-width: 0; stroke-dasharray: none; stroke-linecap: butt; stroke-dashoffset: 0; stroke-linejoin: miter; stroke-miterlimit: 4; fill: rgb(255,255,255); fill-opacity: 0; fill-rule: nonzero; opacity: 1;"  paint-order="stroke"  x="-640" y="-512" rx="0" ry="0" width="1280" height="1024" />
</g>
<g transform="matrix(3.3316863050184855 0 0 3.3316863050184855 678.055375359354 501.3239266432071)" id="logo-logo"  >
<g style=""  paint-order="stroke"   >
		<g transform="matrix(0.44178530440748964 0 0 0.44178530440748964 0 -40.7905300778969)"  >
<path style="stroke: none; stroke-width: 1; stroke-dasharray: none; stroke-linecap: butt; stroke-dashoffset: 0; stroke-linejoin: miter; stroke-miterlimit: 4; fill: rgb(0,0,0); fill-rule: nonzero; opacity: 1;"  paint-order="stroke"  transform=" translate(-249.99999245000086, -157.66887660000003)" d="M 344.2631226 59.2931976 L 100.6301804 59.2931976 L 100.6301804 256.0445556 L 344.26311499999997 256.0445556 C 374.6493455 256.0445556 399.3698045 231.32312010000004 399.3698045 200.93690480000004 L 399.3698045 114.40036760000004 C 399.369812 84.0141449 374.649353 59.2931976 344.2631226 59.2931976 z M 392.2003174 211.9684296 L 106.5372543 211.9684296 L 106.5372543 179.70645150000001 L 393.462738 179.70645150000001 L 393.462738 200.93690500000002 C 393.462738 204.7303162 393.0168152 208.4193573 392.2003174 211.9684296 z M 106.5372543 173.7993927 L 106.5372543 141.5378876 L 393.462738 141.5378876 L 393.462738 173.7993927 L 106.5372543 173.7993927 z M 106.5372543 135.6308136 L 106.5372543 103.36931610000002 L 392.2003708 103.36931610000002 C 393.0168076 106.91828160000001 393.4627304 110.60713200000002 393.4627304 114.40036770000002 L 393.4627304 135.6308136 L 106.5372543 135.6308136 z M 344.2631226 65.2002716 C 365.4428101 65.2002716 383.5386048 78.6531143 390.4571228 97.4622497 L 106.5372543 97.4622497 L 106.5372543 65.2002716 L 344.2631226 65.2002716 z M 344.2631226 250.1374817 L 106.5372543 250.1374817 L 106.5372543 217.8755036 L 390.4569931 217.8755036 C 383.5384216 236.6846924 365.442688 250.1374817 344.2631226 250.1374817 z" stroke-linecap="round" />
</g>
		<g transform="matrix(0.44178530440748964 0 0 0.44178530440748964 -29.5261963104723 47.78826947466271)"  >
<path style="stroke: none; stroke-width: 1; stroke-dasharray: none; stroke-linecap: butt; stroke-dashoffset: 0; stroke-linejoin: miter; stroke-miterlimit: 4; fill: rgb(0,0,0); fill-rule: nonzero; opacity: 1;"  paint-order="stroke"  transform=" translate(-183.1661797, -358.17079160000003)" d="M 100.6301804 385.5991516 C 100.6301804 415.98538210000004 125.3511353 440.70678710000004 155.7373505 440.70678710000004 L 210.59501649999999 440.70678710000004 C 240.981247 440.70678710000004 265.702179 415.98538210000004 265.702179 385.5991516 L 265.702179 275.6347961 L 100.630188 275.6347961 L 100.630188 385.5991516 z M 146.3282471 433.8867798 L 146.3282471 281.5418701 L 180.2121735 281.5418701 L 180.2121735 434.79974359999994 L 155.7373505 434.79974359999994 C 152.5192413 434.7997437 149.3755798 434.4795837 146.3282471 433.8867798 z M 186.1192474 434.7997437 L 186.1192474 281.5418701 L 220.0036468 281.5418701 L 220.0036468 433.88684079999996 C 216.95643610000002 434.47952269999996 213.81295770000003 434.79974359999994 210.59501640000002 434.79974359999994 L 186.1192474 434.79974359999994 z M 259.7951355 385.5991516 C 259.7951355 407.3811645 245.5613403 425.8914184 225.9107208 432.3462524 L 225.9107208 281.5418701 L 259.7951355 281.5418701 L 259.7951355 385.5991516 z M 106.5372543 281.5418701 L 140.4211731 281.5418701 L 140.4211731 432.3460998 C 120.7707901 425.8910522 106.5372543 407.3809814 106.5372543 385.59915159999997 L 106.5372543 281.5418701 z" stroke-linecap="round" />
</g>
</g>
</g>
</svg>